PathFileType	4	(X/Y/Z)	./resultDataOpenSim/trcMotMarkerGrf/sub06/qtm-05-05.trc
DataRate	CameraRate	NumFrames	NumMarkers	Units	OrigDataRate	OrigDataStartFrame	OrigNumFrames
250.000000	250.000000	6	24	m	250.000000	316	505
Frame#	Time	L.Toe.Tip			R.Toe.Tip			L.Ankle.Lat			R.Ankle.Lat			L.Ankle.Med			R.Ankle.Med			L.Heel			R.Heel			L.Knee.Lat			R.Knee.Lat			L.Knee.Med			R.Knee.Med			L.Thigh.Upper			R.Thigh.Upper			L.ASIS			R.ASIS			V.Sacral			L.Acromium			R.Acromium			C7			L.Elbow			R.Elbow			L.Wrist.Lat			R.Wrist.Lat
		X1	Y1	Z1	X2	Y2	Z2	X3	Y3	Z3	X4	Y4	Z4	X5	Y5	Z5	X6	Y6	Z6	X7	Y7	Z7	X8	Y8	Z8	X9	Y9	Z9	X10	Y10	Z10	X11	Y11	Z11	X12	Y12	Z12	X13	Y13	Z13	X14	Y14	Z14	X15	Y15	Z15	X16	Y16	Z16	X17	Y17	Z17	X18	Y18	Z18	X19	Y19	Z19	X20	Y20	Z20	X21	Y21	Z21	X22	Y22	Z22	X23	Y23	Z23	X24	Y24	Z24

316	1.26	0.26692097	0.043554977	-0.025842624	0.86478612	0.03568397	0.15400484	0.27902707	0.17544478	-0.052810327	0.72917272	0.060964571	0.17137882	0.30156494	0.17634348	0.030052472	0.75390688	0.077892174	0.08411666	0.23810289	0.23259531	0.0010755011	0.67489569	0.03832338	0.11036538	0.62203546	0.33161518	-0.087229946	0.84295747	0.42691016	0.20325204	0.62258696	0.31843464	0.034127	0.81214576	0.41642161	0.080190136	0.60797806	0.72216566	-0.081631796	0.66339028	0.7605029	0.25947579	0.69239044	0.77414803	-0.05204566	0.73706046	0.80022247	0.18777061	0.53085489	0.86943654	0.094211212	0.69831112	1.277229	-0.083024674	0.68796982	1.239908	0.27758291	0.61571702	1.3047474	0.098010475	0.70110574	0.94974184	-0.15133383	0.55750143	0.953502	0.3394101	0.91478901	0.83202881	-0.099540815	0.66584137	0.74182345	0.39721017
317	1.264	0.27972195	0.048134888	-0.025850891	0.8646624	0.035697135	0.15413712	0.29127988	0.17994195	-0.052632163	0.72900617	0.060918761	0.17145343	0.31378652	0.18078354	0.030197348	0.75389876	0.077981394	0.084251093	0.25002867	0.23709659	0.001355854	0.67485978	0.038346451	0.11028903	0.63450952	0.3341273	-0.087630662	0.84403298	0.4265248	0.20372767	0.63516229	0.32064876	0.033927026	0.81395732	0.41667316	0.080668617	0.61481695	0.72477572	-0.08104172	0.66817702	0.76235289	0.25976816	0.69892524	0.77675636	-0.051637428	0.7426115	0.80251857	0.1889	0.53682933	0.87179033	0.094412763	0.70322135	1.2797662	-0.083176012	0.6936729	1.2425874	0.27751213	0.62113144	1.3072621	0.098082595	0.70439637	0.95222932	-0.15103484	0.56543412	0.95507896	0.34005178	0.91687365	0.83183816	-0.10069771	0.67737749	0.74469614	0.3962574
318	1.268	0.29273008	0.052528069	-0.025816104	0.86455158	0.035712322	0.15425262	0.30364409	0.18424439	-0.052460301	0.72885138	0.060881728	0.17151996	0.32611914	0.18508792	0.030324152	0.75388578	0.078070184	0.084369275	0.26203868	0.24140105	0.0015567864	0.67484414	0.038361594	0.11020266	0.64695074	0.33675849	-0.087958197	0.84510271	0.42619695	0.20414421	0.64803043	0.32296393	0.033730991	0.81540215	0.41690873	0.081189729	0.62166304	0.72746702	-0.080301445	0.67287331	0.7642019	0.25995173	0.7054426	0.77937854	-0.051106911	0.74812319	0.80490003	0.18996471	0.54281649	0.87413728	0.094600168	0.70814814	1.2823323	-0.083331547	0.69938427	1.2453364	0.27743724	0.62654144	1.3098126	0.098140789	0.70756457	0.95474321	-0.15115162	0.57329059	0.95672539	0.34064354	0.91884299	0.83170342	-0.1019217	0.68889754	0.74774472	0.39527471
319	1.272	0.30594885	0.056721894	-0.025743353	0.86445629	0.035724744	0.15435202	0.31609796	0.18835151	-0.052291381	0.72872564	0.060848704	0.17158153	0.33855439	0.18924693	0.030434595	0.75386775	0.078159306	0.084475255	0.27418226	0.24548106	0.0016002732	0.67483379	0.038379301	0.11013258	0.659356	0.33951272	-0.088214787	0.84629485	0.4259644	0.20460667	0.66135512	0.32542766	0.033420505	0.81649344	0.41712262	0.081743364	0.62850726	0.73018634	-0.079642915	0.67762387	0.76610784	0.26012899	0.7119163	0.78201259	-0.050443833	0.75364235	0.80737757	0.19098776	0.54880523	0.87649256	0.094767834	0.71310064	1.2849213	-0.083486207	0.70510138	1.2481524	0.27735922	0.6319486	1.3123894	0.098188944	0.71064618	0.95728829	-0.15144505	0.58107143	0.95844225	0.34119063	0.92069574	0.83161477	-0.10320659	0.70041647	0.75097308	0.39428463
320	1.276	0.31939026	0.060706136	-0.025636612	0.86437475	0.035734637	0.15443701	0.32863251	0.19226155	-0.052125669	0.72862906	0.060817757	0.17164144	0.35108106	0.19325245	0.030534198	0.75384167	0.078251093	0.084573714	0.28647499	0.24932179	0.0014292792	0.67481384	0.038414478	0.11009854	0.67174405	0.3423953	-0.088419739	0.8475638	0.42583085	0.20510945	0.6748716	0.32809563	0.033046094	0.81741323	0.41729905	0.082240652	0.63537677	0.73292235	-0.079243281	0.68258958	0.7681311	0.26041695	0.71834992	0.78468147	-0.0496819	0.75920576	0.80996037	0.19198919	0.55478835	0.87888064	0.094896131	0.7180844	1.2875285	-0.083633255	0.71081544	1.251025	0.27727521	0.63735417	1.3149817	0.098223662	0.71369173	0.95989303	-0.15156624	0.58879903	0.96023355	0.34170691	0.92243675	0.83156705	-0.10454783	0.7119239	0.75437357	0.39329246
321	1.28	0.33306523	0.064480199	-0.025507198	0.86430169	0.035746346	0.1545104	0.34124317	0.19597367	-0.051960468	0.72854921	0.060786702	0.17170295	0.36368478	0.19709931	0.030634258	0.75380283	0.078350423	0.084668422	0.29884424	0.25289809	0.001167111	0.67477849	0.038473017	0.11010153	0.68413664	0.34540849	-0.088602848	0.84879361	0.42578047	0.20556584	0.68812945	0.33097628	0.032759785	0.81832416	0.41743358	0.082603247	0.64232664	0.73569077	-0.079182854	0.68781804	0.77028141	0.26084742	0.72478717	0.78742696	-0.048847067	0.76479201	0.81263105	0.19295392	0.56075769	0.88131123	0.094968478	0.72309974	1.29015	-0.083768739	0.71652325	1.2539451	0.27718481	0.64275683	1.3175841	0.098234876	0.7167332	0.96257802	-0.15136113	0.59651125	0.96210036	0.34220753	0.92407664	0.83156116	-0.10594023	0.72339581	0.75792955	0.39228993
